# xmcd
#
# Track frame offsets: 
#        150
#        19660
#        32496
#        48010
#        83884
#        105109
#        134662
#        160100
#        188518
#        215364
#        235823
#
# Disc length: 3520 seconds
#
# Revision: 1
# Processed by: cddbd v1.5.1PL0 Copyright (c) Steve Scherf et al.
# Submitted via: ExactAudioCopy v0.90b4
#
DISCID=7a0dbe0b
DTITLE=Various Artist - 30 Years North Sea Jazz Festival CD 04 1991-1
DTITLE=995
DYEAR=2005
DGENRE=Jazz
TTITLE0=Oscar Peterson - As Long as I Live
TTITLE1=Shirley Horn - Foolin' Myself
TTITLE2=Spyro Gyra - You Can Count on Me
TTITLE3=Roy Hargrove - Soppin' the Biscuit
TTITLE4=Gerry Mulligan - Jeru
TTITLE5=Abbey Lincoln - Hi Fly
TTITLE6=Toots Thielemans - Corcovado (Quiet Nights of Quiet Stars)
TTITLE7=Joe Henderson - Joshua
TTITLE8=Kenny Baron - One Finger Snap
TTITLE9=Laura Fygi - Baby Come to Me
TTITLE10=The Jazztet - November Afternoon
EXTD=YEAR: 2005
EXTT0=
EXTT1=
EXTT2=
EXTT3=
EXTT4=
EXTT5=
EXTT6=
EXTT7=
EXTT8=
EXTT9=
EXTT10=
PLAYORDER=
